<?xml version="1.0" standalone="no"?>
<!DOCTYPE svg PUBLIC "-//W3C//DTD SVG 20010904//EN"
 "http://www.w3.org/TR/2001/REC-SVG-20010904/DTD/svg10.dtd">
<svg version="1.0" xmlns="http://www.w3.org/2000/svg"
 width="700.000000pt" height="700.000000pt" viewBox="0 0 700.000000 700.000000"
 preserveAspectRatio="xMidYMid meet">
<metadata>
Created by potrace 1.11, written by Peter Selinger 2001-2013
</metadata>
<g transform="translate(0.000000,700.000000) scale(0.100000,-0.100000)"
fill="#000000" stroke="none">
<path d="M3259 6105 c-12 -86 -12 -102 -1 -92 11 9 13 2 8 -39 -4 -34 -3 -42
3 -24 13 35 18 -4 8 -55 -3 -17 -12 -20 -55 -20 -28 -1 -53 -3 -56 -6 -2 -2
-44 -1 -93 2 -48 3 -89 2 -91 -3 -4 -8 -50 0 -67 12 -5 4 -21 4 -35 0 -14 -4
-36 -3 -49 2 -16 6 -29 4 -39 -4 -12 -10 -16 -10 -19 0 -3 6 -12 12 -20 12 -9
0 -13 -6 -10 -14 11 -28 -38 -46 -130 -48 -49 0 -82 -3 -75 -5 6 -3 12 -11 12
-19 0 -9 -4 -12 -10 -9 -5 3 -10 2 -10 -3 0 -6 -7 -12 -15 -16 -8 -3 -14 0
-12 7 3 18 -52 21 -87 4 -17 -8 -44 -20 -59 -26 -15 -6 -26 -15 -23 -19 2 -4
-19 -21 -47 -36 -58 -33 -59 -31 -2 15 22 18 31 29 20 25 -11 -5 -40 -15 -65
-23 -48 -17 -82 -41 -75 -53 3 -4 -7 -11 -23 -15 -15 -3 -34 -15 -42 -26 -9
-11 -31 -22 -50 -25 -18 -3 -50 -19 -70 -35 -20 -16 -71 -43 -113 -59 -100
-39 -126 -52 -162 -87 -29 -29 -62 -48 -77 -45 -5 1 -8 -2 -8 -8 0 -5 6 -10
13 -10 6 -1 -7 -10 -30 -22 -24 -11 -41 -24 -38 -28 3 -4 -7 -15 -21 -25 -36
-23 -150 -137 -147 -147 2 -4 -3 -5 -10 -2 -7 2 -18 -8 -24 -23 -7 -16 -30
-57 -51 -93 -40 -68 -56 -110 -42 -110 4 0 10 -9 13 -20 4 -15 0 -20 -15 -20
-15 0 -18 -5 -13 -19 3 -11 1 -22 -5 -26 -5 -3 -10 -1 -10 5 0 6 -5 8 -10 5
-12 -8 -13 -48 -1 -60 5 -6 16 -30 24 -55 11 -33 21 -46 37 -48 14 -2 20 0 16
7 -4 6 -2 11 3 11 14 0 14 -16 1 -39 -9 -17 19 -18 581 -18 557 0 590 -1 609
-18 18 -16 18 -20 6 -27 -13 -8 -35 -2 -92 24 -15 7 -30 4 -60 -12 l-38 -22
-14 21 c-14 20 -49 31 -37 11 3 -5 0 -10 -7 -10 -7 -1 3 -8 22 -17 27 -12 31
-17 17 -20 -10 -3 -30 -2 -45 2 -50 12 -169 12 -187 -1 -9 -7 -23 -10 -31 -7
-8 3 -17 -2 -20 -10 -3 -9 -18 -16 -32 -16 -15 0 -67 0 -115 -1 -49 0 -93 2
-98 5 -5 4 -9 1 -9 -4 0 -6 5 -12 10 -12 6 -1 15 -3 20 -4 6 -1 20 -4 33 -5
17 -2 18 -3 4 -7 -9 -2 -15 -9 -12 -14 4 -5 -5 -9 -19 -9 -14 0 -26 3 -26 8 0
12 -60 42 -74 36 -8 -3 -16 -14 -19 -25 -3 -13 -14 -19 -32 -19 -14 0 -24 4
-20 9 9 15 -34 4 -50 -13 -14 -13 -12 -16 20 -22 19 -3 48 -1 63 5 28 11 70
10 91 -3 6 -4 44 0 84 9 101 23 135 26 143 14 4 -8 9 -7 15 2 6 11 12 10 27
-4 17 -16 21 -16 32 -2 10 12 10 15 -4 15 -9 0 -16 4 -16 8 0 12 96 -2 113
-16 7 -7 17 -9 20 -5 4 3 64 7 134 9 139 3 201 11 220 26 7 5 17 7 23 3 6 -4
47 -9 91 -11 45 -2 89 -6 100 -9 13 -5 19 -2 19 10 0 13 4 14 22 4 24 -13 111
-14 115 -2 3 9 52 8 120 -2 36 -5 45 -4 41 7 -5 11 22 13 142 13 82 0 151 -3
154 -6 4 -3 8 -25 9 -47 3 -40 15 -70 14 -35 0 33 3 43 12 43 12 0 21 -38 9
-42 -5 -2 -11 -27 -14 -57 -2 -29 -7 -58 -11 -65 -12 -19 -12 -40 -1 -54 9
-10 8 -16 -3 -23 -12 -7 -12 -9 1 -9 11 0 12 -2 3 -8 -10 -6 -11 -15 -4 -52 1
-3 10 6 22 20 l20 25 -8 -40 c-3 -22 -7 -48 -7 -57 0 -23 -4 -23 -27 5 -16 19
-18 20 -19 4 0 -10 5 -15 10 -12 11 7 13 -7 11 -75 -1 -25 -5 -46 -9 -48 -5
-1 -6 -24 -3 -50 4 -26 6 -67 6 -92 l0 -44 -38 -2 c-52 -3 -60 -14 -11 -15
l39 0 -44 -18 c-27 -11 -75 -19 -120 -20 -42 -1 -87 -5 -100 -8 -18 -4 -22 -3
-16 7 6 10 4 12 -9 7 -10 -4 -25 -7 -33 -7 -13 0 -13 -3 -3 -15 10 -13 9 -15
-9 -15 -12 0 -31 -5 -42 -11 -15 -7 -24 -7 -35 1 -8 7 -28 10 -46 7 -104 -18
-153 -29 -163 -37 -12 -10 -133 -50 -150 -49 -5 0 17 11 50 25 98 40 85 45
-36 13 -149 -38 -150 -39 -144 -49 3 -4 -17 -11 -44 -15 -29 -4 -57 -15 -67
-26 -12 -14 -30 -19 -65 -19 -34 0 -66 -9 -106 -29 -32 -16 -124 -48 -205 -70
-80 -22 -164 -49 -185 -60 -21 -11 -50 -25 -65 -32 -16 -6 -28 -15 -28 -19 0
-5 -25 -14 -55 -21 -30 -7 -55 -16 -55 -21 0 -4 5 -8 10 -8 28 0 4 -18 -45
-34 -30 -9 -55 -20 -55 -24 0 -5 -30 -23 -67 -42 -38 -19 -76 -42 -85 -50 -9
-9 -54 -36 -100 -60 -108 -57 -399 -272 -337 -248 13 5 16 2 12 -13 -3 -11
-14 -19 -27 -19 -12 0 -27 -9 -34 -20 -7 -11 -17 -20 -23 -20 -5 0 -7 5 -3 11
4 7 -1 10 -12 7 -11 -2 -30 -25 -45 -50 -14 -26 -39 -64 -57 -84 -25 -28 -29
-38 -19 -49 6 -7 15 -11 19 -9 4 2 9 0 13 -6 3 -5 -5 -15 -19 -21 -25 -12 -46
-61 -27 -67 7 -2 7 -12 0 -30 -10 -25 -9 -25 9 -9 24 22 31 21 25 -3 -6 -22
-32 -31 -91 -34 -20 0 -41 -4 -47 -7 -5 -4 -22 -6 -37 -5 -18 1 -24 -2 -18 -9
6 -7 5 -16 -2 -23 -9 -9 -17 -7 -35 10 -13 12 -23 16 -23 10 0 -7 -12 -12 -27
-12 -20 0 -24 3 -14 9 16 10 3 20 -22 16 -9 -2 -38 -13 -63 -25 -38 -19 -64
-25 -118 -29 -4 -1 -6 -7 -3 -15 3 -8 1 -17 -6 -20 -7 -2 -4 -5 6 -5 9 -1 17
-6 17 -12 0 -8 -13 -10 -38 -6 -42 7 -78 -13 -69 -37 4 -10 -3 -17 -24 -21
-34 -8 -39 -35 -6 -36 12 0 51 -3 87 -5 39 -2 60 -1 52 5 -16 10 30 21 88 21
21 0 40 4 42 9 1 6 29 11 60 12 31 1 56 6 55 11 -1 5 21 11 48 13 73 5 90 10
90 25 0 13 54 34 64 25 2 -3 -1 -5 -8 -5 -9 0 -8 -4 2 -14 11 -11 38 -15 106
-14 50 1 91 3 91 4 0 1 -7 10 -16 18 -14 15 -14 16 5 16 12 0 30 -5 41 -12 14
-9 24 -9 42 0 13 6 34 14 48 16 14 3 39 7 55 11 37 7 68 -10 45 -25 -13 -8
-13 -10 2 -10 9 0 18 4 20 10 2 5 29 12 61 16 45 5 57 4 55 -6 -4 -19 82 -37
93 -19 6 10 13 9 34 -5 20 -13 38 -16 78 -11 29 4 78 8 110 10 32 3 65 9 74
14 11 5 26 5 41 0 17 -6 29 -6 38 2 12 9 13 9 9 -3 -5 -11 5 -15 45 -17 48 -2
69 12 35 25 -33 13 -12 21 30 11 49 -11 57 -22 23 -33 -19 -6 -20 -7 -4 -16 9
-5 22 -7 29 -4 7 2 3 5 -8 5 -16 1 -17 3 -6 10 8 5 35 6 60 3 25 -3 102 -5
171 -4 69 2 142 3 163 3 20 0 37 3 37 8 0 5 26 7 57 5 32 -2 60 1 63 6 4 6 21
5 45 -3 36 -11 37 -12 14 -19 -15 -5 -10 -6 16 -2 22 2 62 0 90 -5 56 -10 70
-7 34 9 -20 8 -17 9 19 5 24 -2 87 -7 140 -11 99 -6 116 -14 106 -48 -4 -13
-2 -16 6 -11 17 11 151 16 164 7 6 -5 17 -7 24 -6 6 1 24 2 40 4 l27 2 -30 13
c-16 8 -46 14 -64 15 -27 0 -32 3 -23 12 6 6 24 12 39 13 15 2 39 6 52 10 16
6 22 5 17 -3 -12 -20 83 -46 171 -47 67 0 83 -3 83 -15 1 -12 3 -11 14 3 16
20 27 11 21 -19 -2 -10 -4 -24 -4 -30 -1 -5 -20 -29 -43 -52 -22 -23 -35 -42
-28 -42 8 0 11 -9 8 -25 -3 -13 -2 -22 2 -20 4 2 10 -25 13 -62 4 -37 11 -69
15 -72 19 -12 23 -51 8 -79 -8 -16 -17 -42 -20 -56 -3 -15 -10 -42 -15 -59
-22 -70 -18 -119 12 -139 12 -7 13 -181 2 -254 -4 -30 -3 -44 4 -40 10 7 8
-11 -10 -92 -6 -27 -6 -49 0 -61 5 -9 8 -26 6 -37 -2 -10 -4 -23 -4 -27 -1 -5
-6 -5 -12 -1 -9 5 -10 -1 -5 -22 4 -16 8 -36 8 -44 2 -23 -11 -100 -18 -112
-4 -6 -1 -8 7 -6 8 3 13 11 11 18 -2 7 1 16 6 19 6 3 12 21 15 40 8 52 25 59
20 9 -3 -23 -8 -45 -11 -48 -8 -5 -8 -5 -15 -70 -5 -43 -5 -44 7 -16 l13 29 7
-38 c8 -39 9 -215 2 -250 -3 -11 -5 -42 -5 -69 -1 -37 -4 -47 -15 -43 -9 4
-16 -3 -18 -17 -6 -32 -8 -176 -2 -151 14 57 37 115 49 125 19 16 18 -51 -1
-112 -8 -26 -16 -56 -17 -67 0 -11 -5 -17 -9 -15 -11 7 -1 -102 14 -148 9 -32
9 -41 -5 -56 -21 -23 -21 -32 -2 -32 8 0 15 8 15 18 1 16 1 16 11 0 6 -11 22
-18 39 -18 27 0 28 2 32 53 5 56 1 276 -5 317 -2 14 -9 35 -15 46 -6 12 -9 24
-6 26 8 9 17 128 18 240 1 60 4 108 7 108 11 0 9 84 -2 91 -8 4 -7 26 3 75 8
38 12 98 10 134 -7 119 -7 234 1 302 6 55 5 66 -7 62 -11 -4 -13 15 -10 108 2
62 6 125 8 140 3 15 1 30 -4 33 -9 5 -8 48 6 243 4 61 2 92 -5 92 -6 0 -5 12
3 33 8 17 12 40 11 50 -2 9 0 17 4 17 4 0 8 30 9 66 1 71 8 89 23 61 6 -9 17
-17 25 -17 8 0 13 -4 9 -9 -3 -6 4 -15 16 -21 17 -10 20 -9 14 1 -6 9 -2 11
13 7 12 -4 20 -2 16 3 -3 5 8 9 23 9 16 0 35 6 42 13 11 10 12 9 6 -1 -6 -11
-3 -11 16 0 13 7 26 16 29 19 12 14 44 18 56 8 7 -6 53 -21 101 -34 67 -17 92
-20 105 -11 10 6 18 16 18 23 0 8 20 12 63 12 34 0 69 0 77 1 8 0 69 -1 135
-3 66 -2 111 0 100 4 -15 6 -9 8 22 8 34 1 41 -2 37 -14 -5 -11 -2 -14 12 -9
11 4 24 11 29 15 6 4 29 4 50 -1 52 -12 68 -12 60 0 -3 5 -12 7 -21 3 -9 -3
-14 0 -12 7 2 7 -8 14 -21 16 -37 6 -38 14 -3 14 17 0 34 -5 37 -10 3 -5 21
-10 38 -9 26 0 28 2 12 8 -49 20 149 30 294 16 52 -5 83 -15 47 -15 -9 0 -15
-4 -12 -9 3 -4 38 -9 78 -9 40 0 66 1 58 4 -74 25 -100 37 -100 46 0 10 76 7
125 -6 11 -2 32 -5 47 -5 16 -1 28 -8 31 -18 4 -17 5 -17 6 0 1 11 10 17 29
18 15 0 34 2 42 5 61 16 74 16 85 1 13 -19 72 -36 61 -18 -4 7 0 11 11 11 12
1 8 5 -11 13 -25 11 -4 13 143 11 94 -1 175 -4 178 -8 3 -3 13 0 21 7 13 9 14
9 8 0 -4 -7 -2 -13 3 -13 6 0 11 3 11 8 0 4 124 7 275 7 151 0 275 1 275 3 0
1 -9 12 -20 24 -27 29 -25 43 2 24 23 -16 64 -21 92 -10 13 5 14 9 5 20 -10
12 2 13 70 10 65 -3 86 0 98 13 15 14 14 16 -8 22 -13 4 -40 7 -60 8 -25 1
-43 9 -60 27 -13 14 -37 35 -54 47 -21 14 -15 4 20 -31 27 -29 47 -53 45 -53
-22 -6 -152 -3 -156 3 -3 4 -18 8 -33 8 -22 0 -42 18 -112 100 -190 226 -454
461 -704 628 -115 77 -191 140 -180 150 6 6 49 -20 90 -55 73 -62 215 -163
215 -153 0 5 21 -4 47 -20 26 -17 53 -28 59 -26 6 2 30 -11 54 -30 23 -19 46
-34 50 -34 5 0 29 -20 54 -43 25 -24 46 -41 46 -38 0 3 27 -21 60 -54 67 -67
81 -64 20 4 -39 43 -55 76 -25 51 8 -7 15 -8 15 -3 0 6 -25 27 -55 47 -30 20
-55 34 -55 32 0 -3 -11 6 -25 19 -13 14 -28 25 -34 25 -5 0 -13 9 -16 20 -3
11 -14 20 -24 20 -10 0 -23 11 -29 24 -11 24 -48 44 -60 32 -3 -3 3 -13 14
-20 10 -8 17 -17 14 -20 -8 -8 -150 117 -150 133 0 5 -12 14 -27 20 -16 6 -41
19 -58 30 -83 51 -307 179 -358 204 -35 17 -67 27 -79 23 -12 -3 -33 3 -47 13
-34 23 -81 44 -170 76 -60 22 -75 24 -83 13 -8 -10 -9 -10 -5 2 5 19 -49 43
-69 32 -9 -5 -37 3 -75 21 -46 24 -76 31 -137 34 -42 2 -102 10 -132 18 -94
23 -144 29 -135 15 5 -9 -6 -10 -46 -5 -30 4 -133 8 -230 10 -96 2 -179 5
-185 6 -23 4 -45 -2 -39 -11 8 -13 -8 -13 -22 1 -6 6 -34 12 -64 13 -52 3 -54
4 -61 37 -9 39 -12 246 -4 299 15 97 20 217 16 324 -2 38 18 74 27 49 3 -7 19
-13 36 -12 30 1 30 1 7 8 l-25 7 22 12 c27 15 136 9 141 -7 2 -6 13 -11 24
-11 17 0 18 3 8 15 -10 12 -10 15 3 15 10 0 14 6 11 15 -4 9 0 15 9 15 9 0 14
-7 13 -17 -4 -21 50 -45 74 -33 8 4 29 6 45 5 17 -1 33 2 36 8 8 12 90 27 83
16 -3 -5 -13 -9 -22 -9 -9 0 -24 -5 -32 -10 -10 -7 9 -10 63 -10 60 0 77 3 77
14 0 11 7 13 29 6 22 -6 31 -5 35 6 3 9 22 14 58 14 154 1 326 8 348 15 14 5
42 8 63 8 36 -1 37 0 23 16 -15 16 -13 17 22 19 20 0 69 6 107 12 39 6 118 12
178 12 92 1 105 3 95 15 -15 19 0 29 58 38 24 3 43 9 43 13 -4 25 2 35 13 24
7 -7 17 -8 29 -1 15 7 17 6 13 -6 -9 -22 23 -19 53 5 14 11 36 20 48 20 24 0
42 36 21 43 -6 2 -7 8 -3 13 4 4 16 3 27 -3 15 -10 20 -9 26 5 4 9 6 20 6 25
-1 4 6 7 15 8 11 0 13 3 6 6 -18 7 -16 23 1 23 26 0 28 20 4 29 -43 16 -91 24
-84 13 6 -10 -25 -22 -61 -22 -13 0 -23 -4 -23 -10 0 -5 -16 -10 -35 -10 -19
0 -35 -4 -35 -10 0 -5 -11 -10 -24 -10 -13 0 -39 -7 -58 -15 -19 -7 -39 -10
-44 -6 -5 5 -33 6 -62 2 -52 -7 -53 -7 -87 33 -326 391 -716 648 -1154 762
-52 13 -108 27 -125 30 -17 2 -38 7 -46 9 -8 2 -35 7 -60 10 -128 16 -142 22
-100 45 14 8 26 8 43 0 20 -10 20 -10 4 3 -13 11 -14 16 -5 19 19 7 38 -2 38
-18 0 -10 7 -13 23 -8 15 3 39 -3 63 -16 34 -18 36 -18 17 -2 -27 24 -20 34
16 21 21 -8 24 -8 14 2 -7 7 -13 16 -13 19 0 13 55 9 108 -9 64 -22 124 -51
105 -51 -7 0 -13 -4 -13 -10 0 -5 7 -10 15 -10 8 0 22 -8 30 -17 16 -19 57
-21 156 -7 45 6 47 5 57 -25 6 -17 16 -31 22 -31 6 0 8 5 5 10 -3 6 -1 10 6
10 7 0 2 11 -11 25 -19 20 -20 25 -8 25 9 0 30 -11 46 -25 17 -14 37 -25 46
-25 8 0 40 -20 70 -45 30 -24 52 -37 49 -29 -5 14 -3 15 17 4 12 -7 38 -12 56
-12 22 0 34 -5 34 -13 0 -20 21 -30 31 -14 6 10 9 11 9 2 0 -7 6 -13 13 -13 6
0 35 -21 62 -46 59 -53 85 -70 85 -54 0 6 -6 13 -14 16 -8 3 -21 16 -29 28
-14 21 -14 22 4 21 19 -1 44 -19 44 -33 4 -51 65 -123 65 -76 0 13 4 13 31 -3
18 -11 28 -24 26 -34 -2 -9 1 -16 7 -17 6 0 21 -3 34 -6 24 -5 24 -2 -10 47
-11 15 -28 27 -39 27 -19 0 -79 50 -79 66 0 9 -25 23 -145 87 -33 17 -64 37
-68 44 -5 8 -12 11 -17 8 -5 -3 -14 4 -20 15 -6 11 -20 20 -32 20 -21 0 -21 0
-2 -22 l19 -21 -32 18 c-40 23 -83 62 -83 75 0 6 -5 10 -11 10 -7 0 -62 23
-123 51 -61 28 -120 53 -131 55 -78 17 -106 20 -111 13 -3 -5 -15 -2 -27 5
-39 25 -220 77 -231 66 -6 -6 -15 -5 -26 5 -19 18 -111 37 -123 26 -4 -4 -21
-5 -38 -3 -40 6 -54 45 -59 160 0 19 -40 15 -40 -5 -1 -17 -1 -17 -11 0 -7 13
-7 27 0 48 11 31 3 56 -30 99 -9 13 -10 13 -6 -2 3 -9 -1 -19 -9 -22 -10 -4
-14 3 -14 28 0 19 -6 36 -14 39 -10 4 -16 -19 -27 -98z m416 -305 c3 -6 -1 -7
-9 -4 -18 7 -21 14 -7 14 6 0 13 -4 16 -10z m-505 -70 l55 -22 17 22 c21 25
61 20 51 -7 -4 -11 -2 -14 5 -9 8 4 12 0 12 -11 0 -16 -10 -18 -98 -19 -177
-1 -281 -15 -527 -69 -255 -56 -635 -252 -895 -461 -88 -71 -295 -272 -368
-359 -40 -47 -41 -48 -33 -18 7 22 6 33 -2 36 -8 2 -6 12 6 30 18 27 22 49 10
45 -5 -2 -9 0 -10 5 -6 16 -3 27 8 27 5 0 7 -5 3 -11 -4 -8 0 -8 15 0 11 7 21
15 21 19 0 4 14 23 31 42 30 33 30 35 10 38 -25 4 -18 22 9 22 10 0 22 5 26
12 4 6 3 8 -4 4 -6 -3 1 14 14 39 14 25 32 45 40 45 9 0 12 -4 9 -10 -13 -21
8 -9 27 15 11 14 26 25 33 25 25 0 65 23 65 37 0 8 8 13 18 12 31 -3 43 1 37
11 -3 6 -3 10 2 10 12 0 79 63 85 80 3 8 26 21 51 27 48 13 73 43 35 43 -28 0
-12 15 24 24 22 5 26 3 22 -9 -5 -12 2 -11 30 6 20 11 36 18 36 15 0 -7 88 56
117 84 12 12 27 19 32 15 7 -3 11 3 11 15 0 14 5 20 13 17 15 -6 59 28 49 38
-4 4 7 6 23 4 46 -4 115 11 115 25 0 7 6 13 13 14 6 0 38 10 71 22 32 12 60
19 63 17 2 -3 5 -14 6 -26 1 -24 2 -24 27 -11 11 6 40 12 66 15 25 2 49 6 52
9 8 9 -47 26 -63 20 -26 -10 -7 20 21 33 21 10 29 9 41 -2 8 -8 22 -15 31 -16
9 0 30 -3 47 -5 16 -3 49 0 72 7 35 9 41 14 32 25 -9 11 -8 14 5 14 9 0 16 5
16 10 0 18 -27 11 -41 -11 -14 -20 -15 -20 -55 -2 -43 19 -52 49 -9 33 12 -5
25 -7 27 -4 3 2 24 7 48 10 44 6 67 -8 98 -61 7 -12 12 -14 12 -6 0 7 6 11 15
7 8 -3 14 0 12 7 -1 7 3 11 9 10 6 -1 26 11 45 27 28 24 36 26 45 15 6 -8 35
-23 64 -35z m446 2 c-10 -2 -26 3 -35 12 -15 15 -13 16 19 4 26 -9 30 -13 16
-16z m423 -38 c18 -13 25 -14 31 -4 6 9 11 7 19 -9 7 -11 10 -21 8 -21 -14 0
-74 26 -85 37 -19 18 -1 16 27 -3z m-112 -8 c4 -7 26 -23 48 -35 22 -11 37
-21 33 -21 -3 0 -14 -3 -24 -7 -13 -5 -15 -3 -9 8 7 11 6 12 -6 3 -18 -15 -52
-2 -73 28 -9 12 -16 26 -16 30 0 14 39 9 47 -6z m-1597 -26 c-8 -5 -17 -7 -19
-4 -3 3 1 9 9 14 8 5 17 7 19 4 3 -3 -1 -9 -9 -14z m-278 -82 c-7 -7 -12 -8
-12 -2 0 14 12 26 19 19 2 -3 -1 -11 -7 -17z m-157 -218 c-3 -5 -12 -10 -18
-10 -7 0 -6 4 3 10 19 12 23 12 15 0z m-65 -32 c0 -4 -4 -8 -9 -8 -5 0 -17 -3
-25 -6 -12 -5 -15 -2 -10 9 6 16 44 20 44 5z m-195 -148 c-3 -5 -16 -15 -28
-21 -21 -10 -21 -9 2 10 25 23 36 27 26 11z m-320 -380 c-3 -5 -12 -10 -18
-10 -7 0 -6 4 3 10 19 12 23 12 15 0z m3799 -9 c3 -4 -5 -13 -17 -20 -12 -8
-19 -10 -15 -6 4 5 4 13 -2 19 -6 8 -3 12 10 13 11 1 22 -2 24 -6z m-2510
-167 c12 -12 16 -12 16 -2 0 9 12 13 38 12 20 -1 51 -3 67 -3 l30 -2 -24 -13
c-14 -8 -47 -12 -75 -11 -28 1 -69 3 -90 4 -40 1 -41 14 -1 24 11 3 21 5 22 6
1 0 9 -6 17 -15z m206 -14 c13 -9 13 -10 0 -10 -8 0 -22 5 -30 10 -13 9 -13
10 0 10 8 0 22 -5 30 -10z m1187 -6 c-3 -3 -12 -4 -19 -1 -8 3 -5 6 6 6 11 1
17 -2 13 -5z m313 2 c0 -2 -7 -6 -15 -10 -8 -3 -15 -1 -15 4 0 6 7 10 15 10 8
0 15 -2 15 -4z m-50 -26 c0 -5 -7 -10 -16 -10 -8 0 -12 5 -9 10 3 6 10 10 16
10 5 0 9 -4 9 -10z m-1274 -27 c-7 -7 -26 7 -26 19 0 6 6 6 15 -2 9 -7 13 -15
11 -17z m-593 -21 c-18 -2 -33 -8 -33 -14 0 -6 -7 -5 -17 3 -15 13 -13 15 18
19 19 4 41 4 49 0 8 -3 1 -6 -17 -8z m622 8 c-3 -5 -11 -10 -16 -10 -6 0 -7 5
-4 10 3 6 11 10 16 10 6 0 7 -4 4 -10z m445 -632 c-1 -26 -3 -30 -10 -16 -6 9
-7 23 -4 32 9 25 14 19 14 -16z m-20 -18 c0 -5 -4 -10 -10 -10 -5 0 -10 5 -10
10 0 6 5 10 10 10 6 0 10 -4 10 -10z m39 -67 c0 -25 -1 -25 -8 -8 -5 11 -7 23
-4 28 8 14 13 7 12 -20z m763 -85 c-9 -9 -15 -9 -24 0 -9 9 -7 12 12 12 19 0
21 -3 12 -12z m48 -23 c16 -19 0 -19 -26 0 -16 12 -16 14 -3 15 9 0 22 -7 29
-15z m380 -61 c0 -2 -11 -3 -24 -2 -14 1 -23 5 -20 9 4 7 44 0 44 -7z m-2425
-128 c-11 -8 -23 -12 -28 -9 -13 8 3 23 26 23 20 0 20 0 2 -14z m-53 -33 c-10
-4 -10 -8 -1 -19 8 -10 8 -14 0 -14 -6 0 -11 5 -11 10 0 6 -8 10 -17 10 -15 0
-16 2 -3 10 8 5 22 9 30 9 11 0 11 -2 2 -6z m2823 -23 c3 -6 -1 -7 -9 -4 -18
7 -21 14 -7 14 6 0 13 -4 16 -10z m156 -26 c19 -15 26 -24 16 -20 -10 3 -24 6
-29 6 -6 0 -8 3 -5 7 4 3 -1 12 -11 19 -9 7 -14 14 -11 14 3 0 21 -12 40 -26z
m79 -35 c0 -11 -11 -11 -29 0 -7 5 -10 14 -6 20 5 9 10 9 21 0 8 -6 14 -15 14
-20z m0 -54 c0 -13 -4 -14 -20 -5 -11 6 -20 13 -20 15 0 3 9 5 20 5 11 0 20
-7 20 -15z m-3455 -106 c-10 -15 -25 -10 -19 6 4 8 10 12 15 9 5 -3 7 -10 4
-15z m-289 -158 c-7 -10 -66 -33 -66 -25 0 4 57 32 68 34 2 0 1 -4 -2 -9z
m-226 -20 c0 -5 -7 -12 -16 -15 -14 -5 -15 -4 -4 9 14 17 20 19 20 6z m245 0
c-6 -5 -44 -34 -85 -66 -155 -118 -390 -338 -533 -499 -19 -22 -41 -41 -48
-42 -8 -2 -34 -8 -58 -14 -53 -13 -64 -5 -31 22 14 11 24 25 22 30 -1 5 8 18
20 30 21 18 21 19 3 14 -19 -6 -19 -5 1 11 12 10 30 23 40 30 17 10 17 13 4
22 -11 8 -12 11 -2 11 19 0 83 51 77 60 -3 5 6 17 21 27 14 10 46 35 70 56 23
21 49 39 56 41 7 1 24 9 38 19 13 9 28 17 32 17 4 0 22 14 40 30 24 22 28 30
15 30 -19 0 -24 19 -4 22 6 0 17 2 22 3 6 2 20 3 33 4 13 0 20 6 17 11 -3 6 0
16 7 23 8 6 28 24 44 40 34 30 86 48 64 22 -10 -12 -9 -15 4 -15 9 0 16 6 16
14 0 12 29 27 100 50 23 7 25 7 15 -3z m-305 -21 c-19 -13 -30 -13 -30 0 0 6
10 10 23 10 18 0 19 -2 7 -10z m-170 -239 c0 -13 -29 -35 -37 -28 -7 8 15 37
28 37 5 0 9 -4 9 -9z m-205 -101 c-3 -5 -11 -10 -16 -10 -6 0 -7 5 -4 10 3 6
11 10 16 10 6 0 7 -4 4 -10z m3410 -340 c3 -6 -1 -7 -9 -4 -18 7 -21 14 -7 14
6 0 13 -4 16 -10z m-1709 -9 c-3 -5 -15 -7 -26 -4 -28 7 -25 13 6 13 14 0 23
-4 20 -9z m-956 -16 c24 -14 24 -14 -17 -12 -42 2 -50 7 -36 20 10 10 25 8 53
-8z m-1170 -14 c0 -5 -9 -7 -20 -4 -11 3 -20 7 -20 9 0 2 9 4 20 4 11 0 20 -4
20 -9z m2521 -9 c-7 -2 -18 1 -23 6 -8 8 -4 9 13 5 13 -4 18 -8 10 -11z m362
2 c16 -4 27 -13 27 -23 0 -16 -3 -16 -49 -2 -31 10 -47 21 -44 29 3 7 13 10
22 8 9 -3 28 -8 44 -12z m-1566 0 c-3 -3 -12 -4 -19 -1 -8 3 -5 6 6 6 11 1 17
-2 13 -5z m1658 -22 c2 -21 1 -21 -17 -5 -23 20 -23 32 -1 29 9 -2 17 -12 18
-24z m-35 -12 c0 -5 -5 -10 -11 -10 -5 0 -7 5 -4 10 3 6 8 10 11 10 2 0 4 -4
4 -10z m100 -926 c0 -8 -4 -22 -9 -32 -5 -9 -12 -25 -15 -34 -3 -10 -10 -18
-15 -18 -6 0 -6 11 0 30 6 17 16 30 21 30 6 0 7 11 4 26 -5 17 -3 23 4 19 5
-3 10 -13 10 -21z m-63 -1146 c-3 -8 -6 -5 -6 6 -1 11 2 17 5 13 3 -3 4 -12 1
-19z m15 -60 l-9 -33 -5 32 c-2 18 -1 30 4 27 4 -3 9 5 9 18 1 15 3 17 6 6 2
-9 0 -31 -5 -50z m7 -53 c5 2 6 -7 3 -20 -7 -41 -22 -39 -21 2 0 21 3 32 6 25
2 -6 8 -10 12 -7z"/>
<path d="M2520 5619 c0 -5 5 -7 10 -4 6 3 10 8 10 11 0 2 -4 4 -10 4 -5 0 -10
-5 -10 -11z"/>
<path d="M2710 5880 c-13 -8 -12 -10 3 -10 9 0 17 5 17 10 0 12 -1 12 -20 0z"/>
<path d="M4755 5240 c3 -5 8 -10 11 -10 2 0 4 5 4 10 0 6 -5 10 -11 10 -5 0
-7 -4 -4 -10z"/>
<path d="M4810 5240 c0 -5 5 -10 11 -10 5 0 7 5 4 10 -3 6 -8 10 -11 10 -2 0
-4 -4 -4 -10z"/>
<path d="M4914 5151 c16 -17 32 -29 34 -26 7 7 -18 34 -42 47 -16 8 -14 3 8
-21z"/>
<path d="M1535 4480 c-3 -6 1 -7 9 -4 18 7 21 14 7 14 -6 0 -13 -4 -16 -10z"/>
<path d="M1400 4448 c0 -10 16 -9 50 2 22 7 20 8 -12 7 -21 -1 -38 -5 -38 -9z"/>
<path d="M5570 3146 c0 -2 8 -10 18 -17 15 -13 16 -12 3 4 -13 16 -21 21 -21
13z"/>
<path d="M5980 2945 c8 -11 19 -23 23 -26 5 -3 8 -9 7 -13 -1 -4 4 -21 11 -39
22 -57 71 -97 81 -66 2 5 21 -6 43 -27 22 -20 31 -30 20 -23 -11 7 -6 -2 10
-19 28 -30 75 -51 75 -33 0 19 -64 92 -86 97 -13 3 -47 32 -76 63 -55 58 -138
125 -108 86z"/>
<path d="M6256 2655 c4 -8 11 -15 16 -15 6 0 5 6 -2 15 -7 8 -14 15 -16 15 -2
0 -1 -7 2 -15z"/>
<path d="M6626 2451 c-17 -6 -17 -8 -4 -14 10 -3 19 0 22 9 3 8 4 14 3 13 -1
0 -11 -4 -21 -8z"/>
<path d="M6848 2454 c-2 -1 -22 -4 -45 -5 -63 -4 -43 -15 22 -13 61 2 78 8 46
17 -11 2 -21 3 -23 1z"/>
<path d="M5465 2340 c3 -5 8 -10 11 -10 2 0 4 5 4 10 0 6 -5 10 -11 10 -5 0
-7 -4 -4 -10z"/>
<path d="M5118 2333 c6 -2 18 -2 25 0 6 3 1 5 -13 5 -14 0 -19 -2 -12 -5z"/>
<path d="M5152 2325 c-11 -12 -10 -15 3 -15 8 0 15 7 15 15 0 18 -2 18 -18 0z"/>
<path d="M4820 2319 c0 -5 5 -7 10 -4 6 3 10 8 10 11 0 2 -4 4 -10 4 -5 0 -10
-5 -10 -11z"/>
<path d="M4670 2291 c0 -6 4 -13 10 -16 6 -3 7 1 4 9 -7 18 -14 21 -14 7z"/>
<path d="M2788 2249 c12 -12 37 -15 42 -4 3 6 -7 10 -22 10 -16 1 -25 -2 -20
-6z"/>
<path d="M3305 799 c-4 -6 -5 -12 -2 -15 2 -3 7 2 10 11 7 17 1 20 -8 4z"/>
<path d="M3336 615 c4 -8 8 -15 10 -15 2 0 4 7 4 15 0 8 -4 15 -10 15 -5 0 -7
-7 -4 -15z"/>
<path d="M3351 264 c0 -11 3 -14 6 -6 3 7 2 16 -1 19 -3 4 -6 -2 -5 -13z"/>
<path d="M3333 235 c0 -22 2 -30 4 -17 2 12 2 30 0 40 -3 9 -5 -1 -4 -23z"/>
</g>
</svg>
